<?xml version="1.0" encoding="utf-8"?>
<svg xmlns="http://www.w3.org/2000/svg" viewBox="0 0 24 24" width="100" height="100">
  <path d="M14.768,3.263L12,6L9.307,3.263C9.012,2.968,8.566,2.887,8.186,3.059l-7.112,3.23c-0.62,0.282-0.783,1.087-0.322,1.588 L3,10.348v6.365c0,0.753,0.423,1.443,1.095,1.784L11,21.999v-9.084l-6-2.801l6.591-3.016c0.255-0.13,0.561-0.13,0.816,0L19,10.113 l-6,2.801V22l6.905-3.505C20.577,18.154,21,17.465,21,16.712v-6.364l2.322-2.471C23.783,7.376,23.62,6.571,23,6.289l-7.112-3.23 C15.509,2.887,15.063,2.968,14.768,3.263z" fill="#2D46FD" />
</svg>